<?xml version="1.0" encoding="UTF-8"?><svg id="Layer_2" xmlns="http://www.w3.org/2000/svg" viewBox="0 0 1280.38 863.15"><defs><style>.cls-1{fill:#f7fd00;stroke-width:0px;}</style></defs><g id="Layer_1-2"><path class="cls-1" d="M745.41,289.34l-88.44,343.82s-.02.08-.03.12l-.43,1.67s-.02.08-.03.11c-4.2,14.62-17.67,25.31-33.64,25.31-11.38,0-21.49-5.43-27.88-13.84-.57-.87-1.16-1.72-1.76-2.55-37.65-52.12-127.72-42.56-146.12,28.69-9.34,36.17-18.23,70.57-25.82,99.9-13.68,52.88-61.4,89.82-116.02,89.82h-2.82c-22.23,0-43.31-6.11-61.41-16.93-27.09-16.17-46.3-42.81-54.16-73.36L1.14,50.16C-5.47,24.49,17.78,1,43.48,7.47c86.46,21.73,156.51,89.11,179.6,178.46l1.02,3.97c21.27,82.3,138.14,82.28,159.39-.01,9.36-36.23,18.26-70.69,25.86-100.05C423.03,36.94,470.74,0,525.39,0h2.82c54.63,0,102.36,36.94,116.04,89.84,7.62,29.42,16.55,63.97,25.93,100.3,7.79,30.14,28.4,49.23,52.44,57.3,17.41,5.84,27.37,24.11,22.79,41.9Z"/><path class="cls-1" d="M1012.72,6.98c-87.35,21.2-158.28,88.92-181.54,178.95-53.4,206.73-106.79,413.46-160.19,620.19-4.03,15.59,2.56,32.1,16.41,40.32,18.12,10.74,39.19,16.79,61.39,16.71.95,0,1.89,0,2.84,0,54.44-.17,101.91-37.06,115.54-89.77,63.52-246.31,127.05-492.62,190.57-738.93,4.52-17.54-10.54-33.95-28.39-30.9-5.6.96-11.14,2.1-16.62,3.43Z"/><path class="cls-1" d="M1061.84,243.28l-84.99,330.38c-4.57,17.76,5.35,36.01,22.72,41.88,23.97,8.09,44.5,27.17,52.28,57.24l1.32,5.11c23.47,90.83,95.74,158.81,184.34,178.82,25.66,5.79,48.37-17.55,41.7-42.99l-149.61-570.6c-9.15-34.91-58.76-34.8-67.75.16Z"/></g></svg>